<?xml version="1.0" standalone="no"?>
<!DOCTYPE svg PUBLIC "-//W3C//DTD SVG 20010904//EN"
 "http://www.w3.org/TR/2001/REC-SVG-20010904/DTD/svg10.dtd">
<svg version="1.0" xmlns="http://www.w3.org/2000/svg"
 width="500.000000pt" height="500.000000pt" viewBox="0 0 500.000000 500.000000"
 preserveAspectRatio="xMidYMid meet">
<metadata>
Created by potrace 1.14, written by Peter Selinger 2001-2017
</metadata>
<g transform="translate(0.000000,500.000000) scale(0.100000,-0.100000)"
fill="#000000" stroke="none">
<path d="M0 2500 l0 -2500 2500 0 2500 0 0 2500 0 2500 -2500 0 -2500 0 0
-2500z m3120 1008 c0 -7 3 -30 6 -50 l7 -38 -42 0 c-36 0 -42 -3 -37 -17 3
-10 8 -43 11 -74 l7 -56 -72 -7 c-40 -4 -76 -4 -80 1 -5 4 -11 41 -15 81 l-7
72 67 0 67 0 -2 43 c-1 23 -1 45 -1 50 2 13 91 8 91 -5z m-215 -290 c5 -26 95
-874 95 -900 0 -17 -26 -18 -415 -18 l-415 0 0 101 c0 101 0 101 23 94 122
-39 165 -46 254 -42 135 8 220 50 269 133 55 94 55 195 0 267 -43 57 -119 100
-254 144 -125 42 -182 79 -182 119 0 106 152 124 322 38 26 -13 50 -24 53 -24
3 0 5 25 5 55 l0 55 120 0 c116 0 120 -1 125 -22z"/>
</g>
</svg>
